<?xml version="1.0" standalone="no"?>
<!DOCTYPE svg PUBLIC "-//W3C//DTD SVG 20010904//EN"
 "http://www.w3.org/TR/2001/REC-SVG-20010904/DTD/svg10.dtd">
<svg version="1.0" xmlns="http://www.w3.org/2000/svg"
 width="256.000000pt" height="256.000000pt" viewBox="0 0 256.000000 256.000000"
 preserveAspectRatio="xMidYMid meet">
<metadata>
Created by potrace 1.14, written by Peter Selinger 2001-2017
</metadata>
<g transform="translate(0.000000,256.000000) scale(0.100000,-0.100000)"
fill="#000000" stroke="none">
<path d="M1085 2504 c-89 -14 -208 -47 -282 -80 -21 -9 -43 -18 -48 -19 -6 -1
-49 -25 -96 -53 -392 -232 -618 -628 -616 -1079 0 -106 5 -153 33 -291 11 -56
59 -183 99 -262 178 -353 517 -599 920 -666 105 -17 326 -12 430 10 246 53
457 167 630 341 76 76 195 228 195 249 0 4 10 23 23 44 47 75 108 245 124 347
3 17 8 50 13 75 14 75 8 284 -11 384 -96 509 -492 903 -1000 995 -116 22 -291
24 -414 5z"/>
</g>
</svg>
